<svg width="668" height="668" viewBox="0 0 668 668" fill="none" xmlns="http://www.w3.org/2000/svg">
<path fill-rule="evenodd" clip-rule="evenodd" d="M49.4823 49.4823C0.666675 98.2976 0.666679 176.865 0.666679 334C0.666679 491.133 0.666675 569.703 49.4823 618.517C98.2977 667.333 176.865 667.333 334 667.333C491.133 667.333 569.703 667.333 618.517 618.517C667.333 569.703 667.333 491.133 667.333 334C667.333 176.865 667.333 98.2976 618.517 49.4823C569.703 0.666622 491.133 0.666626 334 0.666626C176.865 0.666626 98.2977 0.666622 49.4823 49.4823ZM383.603 148.864C396.94 152.437 404.853 166.146 401.28 179.482L315.007 501.457C311.433 514.793 297.723 522.71 284.387 519.137C271.05 515.56 263.137 501.853 266.71 488.517L352.983 166.541C356.557 153.205 370.267 145.29 383.603 148.864ZM432.99 216.322C442.753 206.559 458.58 206.559 468.343 216.322L475.29 223.267C496.467 244.443 514.127 262.103 526.26 278.007C539.07 294.793 548.053 312.53 548.053 334C548.053 355.47 539.07 373.207 526.26 389.993C514.127 405.897 496.467 423.557 475.29 444.733L468.343 451.677C458.58 461.44 442.753 461.44 432.99 451.677C423.227 441.913 423.227 426.087 432.99 416.323L438.707 410.603C461.43 387.88 476.657 372.58 486.51 359.663C495.923 347.327 498.053 340.143 498.053 334C498.053 327.857 495.923 320.673 486.51 308.337C476.657 295.42 461.43 280.12 438.707 257.397L432.99 251.678C423.227 241.915 423.227 226.086 432.99 216.322ZM199.662 216.322C209.425 206.559 225.254 206.559 235.017 216.322C244.78 226.086 244.78 241.915 235.017 251.678L229.298 257.397C206.576 280.12 191.351 295.42 181.496 308.337C172.082 320.673 169.954 327.857 169.954 334C169.954 340.143 172.082 347.327 181.496 359.663C191.351 372.58 206.576 387.88 229.298 410.603L235.017 416.323C244.78 426.087 244.78 441.913 235.017 451.677C225.254 461.44 209.425 461.44 199.662 451.677L192.717 444.733C171.539 423.557 153.879 405.897 141.745 389.993C128.937 373.207 119.954 355.47 119.954 334C119.954 312.53 128.937 294.793 141.745 278.007C153.879 262.103 171.539 244.444 192.717 223.267L199.662 216.322Z" fill="#13D4A9"/>
</svg>
